/* XPM */
static char * haskell_20_xpm[] = {
"20 20 4 1",
" 	c None",
".	c #ffffff",
"*	c #00ff00",
"#	c #ff0000",
"                    ",
"                    ",
"                    ",
"**** ....           ",
" **** ...           ",
"  *** ....          ",
"  **** ....         ",
"   **** ... ########",
"    *** .... #######",
"    **** ....       ",
"    **** ....       ",
"    *** ...... #####",
"   **** ....... ####",
"  **** .... ...     ",
"  *** ....  ....    ",
" **** ...    ....   ",
"**** ....     ...   ",
"                    ",
"                    ",
"                    "};
