/* XPM */
static char * linux_xpm[] = {
"28 20 3 1",
" 	c None",
"#	c #c678d9",
".	c #88c0d0",
"                            ",
"                            ",
"                            ",
"                            ",
"     .        ....        . ",
"      ....................  ",
"        ................    ",
"     ...................... ",
"        .   .      .   .    ",
"        .   .  ..  .   .    ",
"        .   . .##. .   .    ",
"        .   ..####..   .    ",
"        .     .##.     .    ",
"        .      ..      .    ",
"        .              .    ",
"        .              .    ",
"     ...................... ",
"     ...................... ",
"                            ",
"                            "}
